<?xml version="1.0" encoding="UTF-8"?>
<svg xmlns="http://www.w3.org/2000/svg" xmlns:xlink="http://www.w3.org/1999/xlink" width="100px" height="100px" viewBox="0 0 100 100" version="1.1">
<g id="surface1">
<path style=" stroke:none;fill-rule:nonzero;fill:rgb(0%,0%,0%);fill-opacity:1;" d="M 98.535156 83.550781 L 90.40625 75.421875 C 89.507812 74.523438 88.355469 74.042969 87.183594 73.96875 L 84.421875 71.207031 C 88.523438 64.6875 87.738281 55.949219 82.066406 50.277344 C 75.480469 43.691406 64.769531 43.691406 58.183594 50.277344 C 51.601562 56.859375 51.601562 67.574219 58.183594 74.15625 C 63.859375 79.832031 72.59375 80.617188 79.113281 76.515625 L 81.875 79.273438 C 81.949219 80.449219 82.433594 81.601562 83.328125 82.5 L 91.460938 90.625 C 93.414062 92.582031 96.578125 92.578125 98.535156 90.625 C 100.488281 88.671875 100.488281 85.503906 98.535156 83.550781 Z M 78.527344 70.621094 C 73.894531 75.253906 66.355469 75.253906 61.722656 70.621094 C 57.089844 65.988281 57.089844 58.449219 61.722656 53.8125 C 66.355469 49.179688 73.894531 49.179688 78.527344 53.816406 C 83.160156 58.449219 83.160156 65.988281 78.527344 70.621094 Z M 78.527344 70.621094 "/>
<path style=" stroke:none;fill-rule:nonzero;fill:rgb(0%,0%,0%);fill-opacity:1;" d="M 55.359375 47.714844 C 59.226562 43.84375 64.378906 41.714844 69.863281 41.714844 C 75.34375 41.714844 80.496094 43.84375 84.367188 47.714844 C 87.667969 51.015625 89.757812 55.394531 90.25 60.042969 C 90.628906 63.617188 90.0625 67.242188 88.609375 70.53125 L 88.65625 70.582031 C 90.191406 70.957031 91.589844 71.742188 92.703125 72.859375 L 93.507812 73.664062 L 93.507812 17.554688 C 93.507812 16.671875 93.070312 15.84375 92.339844 15.347656 C 85.175781 10.480469 77.039062 7.90625 68.804688 7.90625 C 61.132812 7.90625 53.546875 10.140625 46.753906 14.386719 C 39.957031 10.140625 32.367188 7.90625 24.695312 7.90625 C 16.46875 7.90625 8.332031 10.480469 1.167969 15.347656 C 0.4375 15.84375 0 16.671875 0 17.554688 L 0 80.101562 C 0 81.089844 0.546875 81.996094 1.421875 82.460938 C 2.292969 82.921875 3.351562 82.863281 4.167969 82.308594 C 10.441406 78.046875 17.542969 75.789062 24.699219 75.789062 C 31.855469 75.789062 38.957031 78.046875 45.234375 82.308594 C 45.683594 82.613281 46.207031 82.769531 46.730469 82.769531 C 46.734375 82.769531 46.734375 82.769531 46.742188 82.769531 C 47.277344 82.777344 47.816406 82.621094 48.273438 82.308594 C 50.960938 80.484375 53.792969 79.03125 56.71875 77.960938 C 56.25 77.570312 55.796875 77.15625 55.359375 76.71875 C 47.363281 68.722656 47.363281 55.710938 55.359375 47.714844 Z M 54.476562 25.894531 C 59.480469 22.472656 66.320312 21.960938 69.949219 21.960938 C 73.582031 21.960938 80.421875 22.472656 85.425781 25.894531 C 86.65625 26.734375 86.972656 28.417969 86.132812 29.648438 C 85.289062 30.882812 83.609375 31.195312 82.375 30.355469 C 79.597656 28.453125 75.070312 27.367188 69.953125 27.367188 C 64.832031 27.367188 60.304688 28.453125 57.523438 30.355469 C 57.058594 30.671875 56.527344 30.828125 56.003906 30.828125 C 55.140625 30.828125 54.292969 30.414062 53.769531 29.648438 C 52.929688 28.417969 53.242188 26.734375 54.476562 25.894531 Z M 54.476562 37.582031 C 59.480469 34.160156 66.320312 33.648438 69.949219 33.648438 C 73.582031 33.648438 80.421875 34.160156 85.425781 37.582031 C 86.65625 38.425781 86.972656 40.105469 86.132812 41.335938 C 85.289062 42.570312 83.609375 42.882812 82.375 42.042969 C 79.597656 40.144531 75.070312 39.054688 69.953125 39.054688 C 64.832031 39.054688 60.304688 40.140625 57.523438 42.042969 C 57.058594 42.359375 56.527344 42.515625 56.003906 42.515625 C 55.140625 42.515625 54.292969 42.101562 53.769531 41.335938 C 52.929688 40.105469 53.242188 38.425781 54.476562 37.582031 Z M 39.738281 64.714844 C 38.894531 65.945312 37.214844 66.261719 35.984375 65.421875 C 33.203125 63.519531 28.671875 62.429688 23.554688 62.429688 C 18.4375 62.429688 13.910156 63.519531 11.132812 65.421875 C 10.664062 65.738281 10.132812 65.890625 9.609375 65.890625 C 8.746094 65.890625 7.898438 65.480469 7.375 64.714844 C 6.53125 63.484375 6.851562 61.800781 8.082031 60.960938 C 13.085938 57.539062 19.925781 57.027344 23.554688 57.027344 C 27.1875 57.027344 34.027344 57.539062 39.03125 60.960938 C 40.265625 61.800781 40.578125 63.484375 39.738281 64.714844 Z M 39.738281 53.027344 C 38.894531 54.257812 37.214844 54.574219 35.984375 53.734375 C 33.203125 51.832031 28.671875 50.742188 23.554688 50.742188 C 18.4375 50.742188 13.910156 51.832031 11.132812 53.734375 C 10.664062 54.050781 10.132812 54.203125 9.609375 54.203125 C 8.746094 54.203125 7.898438 53.792969 7.375 53.027344 C 6.53125 51.796875 6.851562 50.113281 8.082031 49.273438 C 13.085938 45.851562 19.925781 45.339844 23.554688 45.339844 C 27.1875 45.339844 34.027344 45.851562 39.03125 49.273438 C 40.265625 50.113281 40.578125 51.792969 39.738281 53.027344 Z M 39.738281 41.335938 C 38.894531 42.570312 37.214844 42.886719 35.984375 42.042969 C 33.203125 40.144531 28.671875 39.054688 23.554688 39.054688 C 18.4375 39.054688 13.910156 40.144531 11.132812 42.042969 C 10.664062 42.363281 10.132812 42.515625 9.609375 42.515625 C 8.746094 42.515625 7.898438 42.101562 7.375 41.335938 C 6.53125 40.105469 6.851562 38.425781 8.082031 37.582031 C 13.085938 34.160156 19.925781 33.648438 23.554688 33.648438 C 27.1875 33.648438 34.027344 34.160156 39.03125 37.582031 C 40.265625 38.425781 40.578125 40.105469 39.738281 41.335938 Z M 39.738281 29.648438 C 38.894531 30.882812 37.214844 31.195312 35.984375 30.355469 C 33.203125 28.453125 28.671875 27.367188 23.554688 27.367188 C 18.4375 27.367188 13.910156 28.453125 11.132812 30.355469 C 10.664062 30.671875 10.132812 30.828125 9.609375 30.828125 C 8.746094 30.828125 7.898438 30.414062 7.375 29.648438 C 6.53125 28.417969 6.851562 26.734375 8.082031 25.894531 C 13.085938 22.472656 19.925781 21.960938 23.554688 21.960938 C 27.1875 21.960938 34.027344 22.472656 39.03125 25.894531 C 40.265625 26.734375 40.578125 28.417969 39.738281 29.648438 Z M 39.738281 29.648438 "/>
</g>
</svg>
